Wavefont-Regular.ufo
<glyph name="_3" format="2">
  <advance width="32.0"/>
  <unicode hex="0103"/>
  <outline>
    <contour>
      <point x="15.0" y="30.0" type="curve" smooth="yes"/>
      <point x="17.0" y="30.0" type="line"/>
      <point x="25.25" y="30.0"/>
      <point x="32.0" y="23.25"/>
      <point x="32.0" y="15.0" type="curve" smooth="yes"/>
      <point x="32.0" y="15.0" type="line"/>
      <point x="32.0" y="6.75"/>
      <point x="25.25" y="0.0"/>
      <point x="17.0" y="0.0" type="curve" smooth="yes"/>
      <point x="15.0" y="0.0" type="line"/>
      <point x="6.75" y="0.0"/>
      <point x="0.0" y="6.75"/>
      <point x="0.0" y="15.0" type="curve" smooth="yes"/>
      <point x="0.0" y="15.0" type="line"/>
      <point x="0.0" y="23.25"/>
      <point x="6.75" y="30.0"/>
    </contour>
  </outline>
</glyph>
<glyph name="_5" format="2">
  <advance width="32.0"/>
  <unicode hex="0105"/>
  <outline>
    <contour>
      <point x="0.0" y="16.444897959183674" type="line"/>
      <point x="0.0" y="34.44489795918368" type="line"/>
      <point x="32.0" y="34.44489795918368" type="line"/>
      <point x="32.0" y="16.444897959183674" type="line"/>
    </contour>
    <component base="cap"/>
    <component base="cap" yOffset="18.0"/>
  </outline>
</glyph>
<glyph name="_6" format="2">
  <advance width="32.0"/>
  <unicode hex="0106"/>
  <unicode hex="0064"/>
  <outline>
    <contour>
      <point x="0.0" y="16.444897959183674" type="line"/>
      <point x="0.0" y="44.44489795918368" type="line"/>
      <point x="32.0" y="44.44489795918368" type="line"/>
      <point x="32.0" y="16.444897959183674" type="line"/>
    </contour>
    <component base="cap"/>
    <component base="cap" yOffset="28.0"/>
  </outline>
</glyph>
<glyph name="_7" format="2">
  <advance width="32.0"/>
  <unicode hex="0107"/>
  <outline>
    <contour>
      <point x="0.0" y="16.444897959183674" type="line"/>
      <point x="0.0" y="54.44489795918368" type="line"/>
      <point x="32.0" y="54.44489795918368" type="line"/>
      <point x="32.0" y="16.444897959183674" type="line"/>
    </contour>
    <component base="cap"/>
    <component base="cap" yOffset="38.0"/>
  </outline>
</glyph>
<glyph name="_8" format="2">
  <advance width="32.0"/>
  <unicode hex="0108"/>
  <unicode hex="0065"/>
  <outline>
    <contour>
      <point x="0.0" y="16.444897959183674" type="line"/>
      <point x="0.0" y="64.44489795918368" type="line"/>
      <point x="32.0" y="64.44489795918368" type="line"/>
      <point x="32.0" y="16.444897959183674" type="line"/>
    </contour>
    <component base="cap"/>
    <component base="cap" yOffset="48.0"/>
  </outline>
</glyph>
<glyph name="_9" format="2">
  <advance width="32.0"/>
  <unicode hex="0109"/>
  <outline>
    <contour>
      <point x="0.0" y="16.444897959183674" type="line"/>
      <point x="0.0" y="74.44489795918368" type="line"/>
      <point x="32.0" y="74.44489795918368" type="line"/>
      <point x="32.0" y="16.444897959183674" type="line"/>
    </contour>
    <component base="cap"/>
    <component base="cap" yOffset="58.0"/>
  </outline>
</glyph>
<glyph name="_10" format="2">
  <advance width="32.0"/>
  <unicode hex="010A"/>
  <unicode hex="0031"/>
  <unicode hex="0066"/>
  <outline>
    <contour>
      <point x="0.0" y="16.444897959183674" type="line"/>
      <point x="0.0" y="84.44489795918368" type="line"/>
      <point x="32.0" y="84.44489795918368" type="line"/>
      <point x="32.0" y="16.444897959183674" type="line"/>
    </contour>
    <component base="cap"/>
    <component base="cap" yOffset="68.0"/>
  </outline>
</glyph>
<glyph name="_11" format="2">
  <advance width="32.0"/>
  <unicode hex="010B"/>
  <outline>
    <contour>
      <point x="0.0" y="16.444897959183674" type="line"/>
      <point x="0.0" y="94.44489795918368" type="line"/>
      <point x="32.0" y="94.44489795918368" type="line"/>
      <point x="32.0" y="16.444897959183674" type="line"/>
    </contour>
    <component base="cap"/>
    <component base="cap" yOffset="78.0"/>
  </outline>
</glyph>
<glyph name="_12" format="2">
  <advance width="32.0"/>
  <unicode hex="010C"/>
  <unicode hex="0067"/>
  <outline>
    <contour>
      <point x="0.0" y="16.444897959183674" type="line"/>
      <point x="0.0" y="104.44489795918368" type="line"/>
      <point x="32.0" y="104.44489795918368" type="line"/>
      <point x="32.0" y="16.444897959183674" type="line"/>
    </contour>
    <component base="cap"/>
    <component base="cap" yOffset="88.0"/>
  </outline>
</glyph>
<glyph name="_17" format="2">
  <advance width="32.0"/>
  <unicode hex="0111"/>
  <outline>
    <contour>
      <point x="0.0" y="16.444897959183674" type="line"/>
      <point x="0.0" y="154.44489795918366" type="line"/>
      <point x="32.0" y="154.44489795918366" type="line"/>
      <point x="32.0" y="16.444897959183674" type="line"/>
    </contour>
    <component base="cap"/>
    <component base="cap" yOffset="138.0"/>
  </outline>
</glyph>
<glyph name="_18" format="2">
  <advance width="32.0"/>
  <unicode hex="0112"/>
  <unicode hex="006A"/>
  <outline>
    <contour>
      <point x="0.0" y="16.444897959183674" type="line"/>
      <point x="0.0" y="164.44489795918366" type="line"/>
      <point x="32.0" y="164.44489795918366" type="line"/>
      <point x="32.0" y="16.444897959183674" type="line"/>
    </contour>
    <component base="cap"/>
    <component base="cap" yOffset="148.0"/>
  </outline>
</glyph>
<glyph name="_20" format="2">
  <advance width="32.0"/>
  <unicode hex="0114"/>
  <unicode hex="0032"/>
  <unicode hex="006B"/>
  <outline>
    <contour>
      <point x="0.0" y="16.444897959183674" type="line"/>
      <point x="0.0" y="184.44489795918366" type="line"/>
      <point x="32.0" y="184.44489795918366" type="line"/>
      <point x="32.0" y="16.444897959183674" type="line"/>
    </contour>
    <component base="cap"/>
    <component base="cap" yOffset="168.0"/>
  </outline>
</glyph>
<glyph name="_21" format="2">
  <advance width="32.0"/>
  <unicode hex="0115"/>
  <outline>
    <contour>
      <point x="0.0" y="16.444897959183674" type="line"/>
      <point x="0.0" y="194.44489795918366" type="line"/>
      <point x="32.0" y="194.44489795918366" type="line"/>
      <point x="32.0" y="16.444897959183674" type="line"/>
    </contour>
    <component base="cap"/>
    <component base="cap" yOffset="178.0"/>
  </outline>
</glyph>
<glyph name="_22" format="2">
  <advance width="32.0"/>
  <unicode hex="0116"/>
  <unicode hex="006C"/>
  <outline>
    <contour>
      <point x="0.0" y="16.444897959183674" type="line"/>
      <point x="0.0" y="204.44489795918366" type="line"/>
      <point x="32.0" y="204.44489795918366" type="line"/>
      <point x="32.0" y="16.444897959183674" type="line"/>
    </contour>
    <component base="cap"/>
    <component base="cap" yOffset="188.0"/>
  </outline>
</glyph>
<glyph name="_24" format="2">
  <advance width="32.0"/>
  <unicode hex="0118"/>
  <unicode hex="006D"/>
  <outline>
    <contour>
      <point x="0.0" y="16.444897959183674" type="line"/>
      <point x="0.0" y="224.44489795918366" type="line"/>
      <point x="32.0" y="224.44489795918366" type="line"/>
      <point x="32.0" y="16.444897959183674" type="line"/>
    </contour>
    <component base="cap"/>
    <component base="cap" yOffset="208.0"/>
  </outline>
</glyph>
<glyph name="_25" format="2">
  <advance width="32.0"/>
  <unicode hex="0119"/>
  <outline>
    <contour>
      <point x="0.0" y="16.444897959183674" type="line"/>
      <point x="0.0" y="234.44489795918366" type="line"/>
      <point x="32.0" y="234.44489795918366" type="line"/>
      <point x="32.0" y="16.444897959183674" type="line"/>
    </contour>
    <component base="cap"/>
    <component base="cap" yOffset="218.0"/>
  </outline>
</glyph>
<glyph name="_26" format="2">
  <advance width="32.0"/>
  <unicode hex="011A"/>
  <unicode hex="006E"/>
  <outline>
    <contour>
      <point x="0.0" y="16.444897959183674" type="line"/>
      <point x="0.0" y="244.44489795918366" type="line"/>
      <point x="32.0" y="244.44489795918366" type="line"/>
      <point x="32.0" y="16.444897959183674" type="line"/>
    </contour>
    <component base="cap"/>
    <component base="cap" yOffset="228.0"/>
  </outline>
</glyph>
<glyph name="_27" format="2">
  <advance width="32.0"/>
  <unicode hex="011B"/>
  <outline>
    <contour>
      <point x="0.0" y="16.444897959183674" type="line"/>
      <point x="0.0" y="254.44489795918366" type="line"/>
      <point x="32.0" y="254.44489795918366" type="line"/>
      <point x="32.0" y="16.444897959183674" type="line"/>
    </contour>
    <component base="cap"/>
    <component base="cap" yOffset="238.0"/>
  </outline>
</glyph>
<glyph name="_28" format="2">
  <advance width="32.0"/>
  <unicode hex="011C"/>
  <unicode hex="2583"/>
  <unicode hex="006F"/>
  <outline>
    <contour>
      <point x="0.0" y="16.444897959183674" type="line"/>
      <point x="0.0" y="264.44489795918366" type="line"/>
      <point x="32.0" y="264.44489795918366" type="line"/>
      <point x="32.0" y="16.444897959183674" type="line"/>
    </contour>
    <component base="cap"/>
    <component base="cap" yOffset="248.0"/>
  </outline>
</glyph>
<glyph name="_29" format="2">
  <advance width="32.0"/>
  <unicode hex="011D"/>
  <outline>
    <contour>
      <point x="0.0" y="16.444897959183674" type="line"/>
      <point x="0.0" y="274.44489795918366" type="line"/>
      <point x="32.0" y="274.44489795918366" type="line"/>
      <point x="32.0" y="16.444897959183674" type="line"/>
    </contour>
    <component base="cap"/>
    <component base="cap" yOffset="258.0"/>
  </outline>
</glyph>
<glyph name="_30" format="2">
  <advance width="32.0"/>
  <unicode hex="011E"/>
  <unicode hex="0033"/>
  <unicode hex="0070"/>
  <outline>
    <contour>
      <point x="0.0" y="16.444897959183674" type="line"/>
      <point x="0.0" y="284.44489795918366" type="line"/>
      <point x="32.0" y="284.44489795918366" type="line"/>
      <point x="32.0" y="16.444897959183674" type="line"/>
    </contour>
    <component base="cap"/>
    <component base="cap" yOffset="268.0"/>
  </outline>
</glyph>
<glyph name="_31" format="2">
  <advance width="32.0"/>
  <unicode hex="011F"/>
  <outline>
    <contour>
      <point x="0.0" y="16.444897959183674" type="line"/>
      <point x="0.0" y="294.44489795918366" type="line"/>
      <point x="32.0" y="294.44489795918366" type="line"/>
      <point x="32.0" y="16.444897959183674" type="line"/>
    </contour>
    <component base="cap"/>
    <component base="cap" yOffset="278.0"/>
  </outline>
</glyph>
<glyph name="_32" format="2">
  <advance width="32.0"/>
  <unicode hex="0120"/>
  <unicode hex="0071"/>
  <outline>
    <contour>
      <point x="0.0" y="16.444897959183674" type="line"/>
      <point x="0.0" y="304.44489795918366" type="line"/>
      <point x="32.0" y="304.44489795918366" type="line"/>
      <point x="32.0" y="16.444897959183674" type="line"/>
    </contour>
    <component base="cap"/>
    <component base="cap" yOffset="288.0"/>
  </outline>
</glyph>
<glyph name="_33" format="2">
  <advance width="32.0"/>
  <unicode hex="0121"/>
  <outline>
    <contour>
      <point x="0.0" y="16.444897959183674" type="line"/>
      <point x="0.0" y="314.44489795918366" type="line"/>
      <point x="32.0" y="314.44489795918366" type="line"/>
      <point x="32.0" y="16.444897959183674" type="line"/>
    </contour>
    <component base="cap"/>
    <component base="cap" yOffset="298.0"/>
  </outline>
</glyph>
<glyph name="_35" format="2">
  <advance width="32.0"/>
  <unicode hex="0123"/>
  <outline>
    <contour>
      <point x="0.0" y="16.444897959183674" type="line"/>
      <point x="0.0" y="334.44489795918366" type="line"/>
      <point x="32.0" y="334.44489795918366" type="line"/>
      <point x="32.0" y="16.444897959183674" type="line"/>
    </contour>
    <component base="cap"/>
    <component base="cap" yOffset="318.0"/>
  </outline>
</glyph>
<glyph name="_36" format="2">
  <advance width="32.0"/>
  <unicode hex="0124"/>
  <unicode hex="0073"/>
  <outline>
    <contour>
      <point x="0.0" y="16.444897959183674" type="line"/>
      <point x="0.0" y="344.44489795918366" type="line"/>
      <point x="32.0" y="344.44489795918366" type="line"/>
      <point x="32.0" y="16.444897959183674" type="line"/>
    </contour>
    <component base="cap"/>
    <component base="cap" yOffset="328.0"/>
  </outline>
</glyph>
<glyph name="_40" format="2">
  <advance width="32.0"/>
  <unicode hex="0128"/>
  <unicode hex="0034"/>
  <unicode hex="0075"/>
  <outline>
    <contour>
      <point x="0.0" y="16.444897959183674" type="line"/>
      <point x="0.0" y="384.44489795918366" type="line"/>
      <point x="32.0" y="384.44489795918366" type="line"/>
      <point x="32.0" y="16.444897959183674" type="line"/>
    </contour>
    <component base="cap"/>
    <component base="cap" yOffset="368.0"/>
  </outline>
</glyph>
<glyph name="_41" format="2">
  <advance width="32.0"/>
  <unicode hex="0129"/>
  <outline>
    <contour>
      <point x="0.0" y="16.444897959183674" type="line"/>
      <point x="0.0" y="394.44489795918366" type="line"/>
      <point x="32.0" y="394.44489795918366" type="line"/>
      <point x="32.0" y="16.444897959183674" type="line"/>
    </contour>
    <component base="cap"/>
    <component base="cap" yOffset="378.0"/>
  </outline>
</glyph>
<glyph name="_44" format="2">
  <advance width="32.0"/>
  <unicode hex="012C"/>
  <unicode hex="0077"/>
  <outline>
    <contour>
      <point x="0.0" y="16.444897959183674" type="line"/>
      <point x="0.0" y="424.44489795918366" type="line"/>
      <point x="32.0" y="424.44489795918366" type="line"/>
      <point x="32.0" y="16.444897959183674" type="line"/>
    </contour>
    <component base="cap"/>
    <component base="cap" yOffset="408.0"/>
  </outline>
</glyph>
<glyph name="_45" format="2">
  <advance width="32.0"/>
  <unicode hex="012D"/>
  <outline>
    <contour>
      <point x="0.0" y="16.444897959183674" type="line"/>
      <point x="0.0" y="434.44489795918366" type="line"/>
      <point x="32.0" y="434.44489795918366" type="line"/>
      <point x="32.0" y="16.444897959183674" type="line"/>
    </contour>
    <component base="cap"/>
    <component base="cap" yOffset="418.0"/>
  </outline>
</glyph>
<glyph name="_46" format="2">
  <advance width="32.0"/>
  <unicode hex="012E"/>
  <unicode hex="0078"/>
  <outline>
    <contour>
      <point x="0.0" y="16.444897959183674" type="line"/>
      <point x="0.0" y="444.44489795918366" type="line"/>
      <point x="32.0" y="444.44489795918366" type="line"/>
      <point x="32.0" y="16.444897959183674" type="line"/>
    </contour>
    <component base="cap"/>
    <component base="cap" yOffset="428.0"/>
  </outline>
</glyph>
<glyph name="_48" format="2">
  <advance width="32.0"/>
  <unicode hex="0130"/>
  <unicode hex="0079"/>
  <outline>
    <contour>
      <point x="0.0" y="16.444897959183674" type="line"/>
      <point x="0.0" y="464.44489795918366" type="line"/>
      <point x="32.0" y="464.44489795918366" type="line"/>
      <point x="32.0" y="16.444897959183674" type="line"/>
    </contour>
    <component base="cap"/>
    <component base="cap" yOffset="448.0"/>
  </outline>
</glyph>
<glyph name="_50" format="2">
  <advance width="32.0"/>
  <unicode hex="0132"/>
  <unicode hex="0035"/>
  <unicode hex="007A"/>
  <outline>
    <contour>
      <point x="0.0" y="16.444897959183674" type="line"/>
      <point x="0.0" y="484.44489795918366" type="line"/>
      <point x="32.0" y="484.44489795918366" type="line"/>
      <point x="32.0" y="16.444897959183674" type="line"/>
    </contour>
    <component base="cap"/>
    <component base="cap" yOffset="468.0"/>
  </outline>
</glyph>
<glyph name="_51" format="2">
  <advance width="32.0"/>
  <unicode hex="0133"/>
  <outline>
    <contour>
      <point x="0.0" y="16.444897959183674" type="line"/>
      <point x="0.0" y="494.44489795918366" type="line"/>
      <point x="32.0" y="494.44489795918366" type="line"/>
      <point x="32.0" y="16.444897959183674" type="line"/>
    </contour>
    <component base="cap"/>
    <component base="cap" yOffset="478.0"/>
  </outline>
</glyph>
<glyph name="_52" format="2">
  <advance width="32.0"/>
  <unicode hex="0134"/>
  <unicode hex="0041"/>
  <outline>
    <contour>
      <point x="0.0" y="16.444897959183674" type="line"/>
      <point x="0.0" y="504.44489795918366" type="line"/>
      <point x="32.0" y="504.44489795918366" type="line"/>
      <point x="32.0" y="16.444897959183674" type="line"/>
    </contour>
    <component base="cap"/>
    <component base="cap" yOffset="488.0"/>
  </outline>
</glyph>
<glyph name="_53" format="2">
  <advance width="32.0"/>
  <unicode hex="0135"/>
  <outline>
    <contour>
      <point x="0.0" y="16.444897959183674" type="line"/>
      <point x="0.0" y="514.4448979591837" type="line"/>
      <point x="32.0" y="514.4448979591837" type="line"/>
      <point x="32.0" y="16.444897959183674" type="line"/>
    </contour>
    <component base="cap"/>
    <component base="cap" yOffset="498.0"/>
  </outline>
</glyph>
<glyph name="_55" format="2">
  <advance width="32.0"/>
  <unicode hex="0137"/>
  <outline>
    <contour>
      <point x="0.0" y="16.444897959183674" type="line"/>
      <point x="0.0" y="534.4448979591837" type="line"/>
      <point x="32.0" y="534.4448979591837" type="line"/>
      <point x="32.0" y="16.444897959183674" type="line"/>
    </contour>
    <component base="cap"/>
    <component base="cap" yOffset="518.0"/>
  </outline>
</glyph>
<glyph name="_56" format="2">
  <advance width="32.0"/>
  <unicode hex="0138"/>
  <unicode hex="2585"/>
  <unicode hex="0043"/>
  <outline>
    <contour>
      <point x="0.0" y="16.444897959183674" type="line"/>
      <point x="0.0" y="544.4448979591837" type="line"/>
      <point x="32.0" y="544.4448979591837" type="line"/>
      <point x="32.0" y="16.444897959183674" type="line"/>
    </contour>
    <component base="cap"/>
    <component base="cap" yOffset="528.0"/>
  </outline>
</glyph>
<glyph name="_57" format="2">
  <advance width="32.0"/>
  <unicode hex="0139"/>
  <outline>
    <contour>
      <point x="0.0" y="16.444897959183674" type="line"/>
      <point x="0.0" y="554.4448979591837" type="line"/>
      <point x="32.0" y="554.4448979591837" type="line"/>
      <point x="32.0" y="16.444897959183674" type="line"/>
    </contour>
    <component base="cap"/>
    <component base="cap" yOffset="538.0"/>
  </outline>
</glyph>
<glyph name="_58" format="2">
  <advance width="32.0"/>
  <unicode hex="013A"/>
  <unicode hex="0044"/>
  <outline>
    <contour>
      <point x="0.0" y="16.444897959183674" type="line"/>
      <point x="0.0" y="564.4448979591837" type="line"/>
      <point x="32.0" y="564.4448979591837" type="line"/>
      <point x="32.0" y="16.444897959183674" type="line"/>
    </contour>
    <component base="cap"/>
    <component base="cap" yOffset="548.0"/>
  </outline>
</glyph>
<glyph name="_59" format="2">
  <advance width="32.0"/>
  <unicode hex="013B"/>
  <outline>
    <contour>
      <point x="0.0" y="16.444897959183674" type="line"/>
      <point x="0.0" y="574.4448979591837" type="line"/>
      <point x="32.0" y="574.4448979591837" type="line"/>
      <point x="32.0" y="16.444897959183674" type="line"/>
    </contour>
    <component base="cap"/>
    <component base="cap" yOffset="558.0"/>
  </outline>
</glyph>
<glyph name="_60" format="2">
  <advance width="32.0"/>
  <unicode hex="013C"/>
  <unicode hex="0036"/>
  <unicode hex="0045"/>
  <outline>
    <contour>
      <point x="0.0" y="16.444897959183674" type="line"/>
      <point x="0.0" y="584.4448979591837" type="line"/>
      <point x="32.0" y="584.4448979591837" type="line"/>
      <point x="32.0" y="16.444897959183674" type="line"/>
    </contour>
    <component base="cap"/>
    <component base="cap" yOffset="568.0"/>
  </outline>
</glyph>
<glyph name="_61" format="2">
  <advance width="32.0"/>
  <unicode hex="013D"/>
  <outline>
    <contour>
      <point x="0.0" y="16.444897959183674" type="line"/>
      <point x="0.0" y="594.4448979591837" type="line"/>
      <point x="32.0" y="594.4448979591837" type="line"/>
      <point x="32.0" y="16.444897959183674" type="line"/>
    </contour>
    <component base="cap"/>
    <component base="cap" yOffset="578.0"/>
  </outline>
</glyph>
<glyph name="_62" format="2">
  <advance width="32.0"/>
  <unicode hex="013E"/>
  <unicode hex="0046"/>
  <outline>
    <contour>
      <point x="0.0" y="16.444897959183674" type="line"/>
      <point x="0.0" y="604.4448979591837" type="line"/>
      <point x="32.0" y="604.4448979591837" type="line"/>
      <point x="32.0" y="16.444897959183674" type="line"/>
    </contour>
    <component base="cap"/>
    <component base="cap" yOffset="588.0"/>
  </outline>
</glyph>
<glyph name="_63" format="2">
  <advance width="32.0"/>
  <unicode hex="013F"/>
  <outline>
    <contour>
      <point x="0.0" y="16.444897959183674" type="line"/>
      <point x="0.0" y="614.4448979591837" type="line"/>
      <point x="32.0" y="614.4448979591837" type="line"/>
      <point x="32.0" y="16.444897959183674" type="line"/>
    </contour>
    <component base="cap"/>
    <component base="cap" yOffset="598.0"/>
  </outline>
</glyph>
<glyph name="_64" format="2">
  <advance width="32.0"/>
  <unicode hex="0140"/>
  <unicode hex="0047"/>
  <outline>
    <contour>
      <point x="0.0" y="16.444897959183674" type="line"/>
      <point x="0.0" y="624.4448979591837" type="line"/>
      <point x="32.0" y="624.4448979591837" type="line"/>
      <point x="32.0" y="16.444897959183674" type="line"/>
    </contour>
    <component base="cap"/>
    <component base="cap" yOffset="608.0"/>
  </outline>
</glyph>
<glyph name="_68" format="2">
  <advance width="32.0"/>
  <unicode hex="0144"/>
  <unicode hex="0049"/>
  <outline>
    <contour>
      <point x="0.0" y="16.444897959183674" type="line"/>
      <point x="0.0" y="664.4448979591837" type="line"/>
      <point x="32.0" y="664.4448979591837" type="line"/>
      <point x="32.0" y="16.444897959183674" type="line"/>
    </contour>
    <component base="cap"/>
    <component base="cap" yOffset="648.0"/>
  </outline>
</glyph>
<glyph name="_70" format="2">
  <advance width="32.0"/>
  <unicode hex="0146"/>
  <unicode hex="0037"/>
  <unicode hex="004A"/>
  <outline>
    <contour>
      <point x="0.0" y="16.444897959183674" type="line"/>
      <point x="0.0" y="684.4448979591837" type="line"/>
      <point x="32.0" y="684.4448979591837" type="line"/>
      <point x="32.0" y="16.444897959183674" type="line"/>
    </contour>
    <component base="cap"/>
    <component base="cap" yOffset="668.0"/>
  </outline>
</glyph>
<glyph name="_72" format="2">
  <advance width="32.0"/>
  <unicode hex="0148"/>
  <unicode hex="2586"/>
  <unicode hex="004B"/>
  <outline>
    <contour>
      <point x="0.0" y="16.444897959183674" type="line"/>
      <point x="0.0" y="704.4448979591837" type="line"/>
      <point x="32.0" y="704.4448979591837" type="line"/>
      <point x="32.0" y="16.444897959183674" type="line"/>
    </contour>
    <component base="cap"/>
    <component base="cap" yOffset="688.0"/>
  </outline>
</glyph>
<glyph name="_73" format="2">
  <advance width="32.0"/>
  <unicode hex="0149"/>
  <outline>
    <contour>
      <point x="0.0" y="16.444897959183674" type="line"/>
      <point x="0.0" y="714.4448979591837" type="line"/>
      <point x="32.0" y="714.4448979591837" type="line"/>
      <point x="32.0" y="16.444897959183674" type="line"/>
    </contour>
    <component base="cap"/>
    <component base="cap" yOffset="698.0"/>
  </outline>
</glyph>
<glyph name="_74" format="2">
  <advance width="32.0"/>
  <unicode hex="014A"/>
  <unicode hex="004C"/>
  <outline>
    <contour>
      <point x="0.0" y="16.444897959183674" type="line"/>
      <point x="0.0" y="724.4448979591837" type="line"/>
      <point x="32.0" y="724.4448979591837" type="line"/>
      <point x="32.0" y="16.444897959183674" type="line"/>
    </contour>
    <component base="cap"/>
    <component base="cap" yOffset="708.0"/>
  </outline>
</glyph>
<glyph name="_76" format="2">
  <advance width="32.0"/>
  <unicode hex="014C"/>
  <unicode hex="004D"/>
  <outline>
    <contour>
      <point x="0.0" y="16.444897959183674" type="line"/>
      <point x="0.0" y="744.4448979591837" type="line"/>
      <point x="32.0" y="744.4448979591837" type="line"/>
      <point x="32.0" y="16.444897959183674" type="line"/>
    </contour>
    <component base="cap"/>
    <component base="cap" yOffset="728.0"/>
  </outline>
</glyph>
<glyph name="_78" format="2">
  <advance width="32.0"/>
  <unicode hex="014E"/>
  <unicode hex="004E"/>
  <outline>
    <contour>
      <point x="0.0" y="16.444897959183674" type="line"/>
      <point x="0.0" y="764.4448979591837" type="line"/>
      <point x="32.0" y="764.4448979591837" type="line"/>
      <point x="32.0" y="16.444897959183674" type="line"/>
    </contour>
    <component base="cap"/>
    <component base="cap" yOffset="748.0"/>
  </outline>
</glyph>
<glyph name="_80" format="2">
  <advance width="32.0"/>
  <unicode hex="0150"/>
  <unicode hex="0038"/>
  <unicode hex="004F"/>
  <outline>
    <contour>
      <point x="0.0" y="16.444897959183674" type="line"/>
      <point x="0.0" y="784.4448979591837" type="line"/>
      <point x="32.0" y="784.4448979591837" type="line"/>
      <point x="32.0" y="16.444897959183674" type="line"/>
    </contour>
    <component base="cap"/>
    <component base="cap" yOffset="768.0"/>
  </outline>
</glyph>
<glyph name="_82" format="2">
  <advance width="32.0"/>
  <unicode hex="0152"/>
  <unicode hex="0050"/>
  <outline>
    <contour>
      <point x="0.0" y="16.444897959183674" type="line"/>
      <point x="0.0" y="804.4448979591837" type="line"/>
      <point x="32.0" y="804.4448979591837" type="line"/>
      <point x="32.0" y="16.444897959183674" type="line"/>
    </contour>
    <component base="cap"/>
    <component base="cap" yOffset="788.0"/>
  </outline>
</glyph>
<glyph name="_87" format="2">
  <advance width="32.0"/>
  <unicode hex="0157"/>
  <outline>
    <contour>
      <point x="0.0" y="16.444897959183674" type="line"/>
      <point x="0.0" y="854.4448979591837" type="line"/>
      <point x="32.0" y="854.4448979591837" type="line"/>
      <point x="32.0" y="16.444897959183674" type="line"/>
    </contour>
    <component base="cap"/>
    <component base="cap" yOffset="838.0"/>
  </outline>
</glyph>
<glyph name="_88" format="2">
  <advance width="32.0"/>
  <unicode hex="0158"/>
  <unicode hex="0053"/>
  <outline>
    <contour>
      <point x="0.0" y="16.444897959183674" type="line"/>
      <point x="0.0" y="864.4448979591837" type="line"/>
      <point x="32.0" y="864.4448979591837" type="line"/>
      <point x="32.0" y="16.444897959183674" type="line"/>
    </contour>
    <component base="cap"/>
    <component base="cap" yOffset="848.0"/>
  </outline>
</glyph>
<glyph name="_89" format="2">
  <advance width="32.0"/>
  <unicode hex="0159"/>
  <outline>
    <contour>
      <point x="0.0" y="16.444897959183674" type="line"/>
      <point x="0.0" y="874.4448979591837" type="line"/>
      <point x="32.0" y="874.4448979591837" type="line"/>
      <point x="32.0" y="16.444897959183674" type="line"/>
    </contour>
    <component base="cap"/>
    <component base="cap" yOffset="858.0"/>
  </outline>
</glyph>
<glyph name="_90" format="2">
  <advance width="32.0"/>
  <unicode hex="015A"/>
  <unicode hex="0039"/>
  <unicode hex="0054"/>
  <outline>
    <contour>
      <point x="0.0" y="16.444897959183674" type="line"/>
      <point x="0.0" y="884.4448979591837" type="line"/>
      <point x="32.0" y="884.4448979591837" type="line"/>
      <point x="32.0" y="16.444897959183674" type="line"/>
    </contour>
    <component base="cap"/>
    <component base="cap" yOffset="868.0"/>
  </outline>
</glyph>
<glyph name="_91" format="2">
  <advance width="32.0"/>
  <unicode hex="015B"/>
  <outline>
    <contour>
      <point x="0.0" y="16.444897959183674" type="line"/>
      <point x="0.0" y="894.4448979591837" type="line"/>
      <point x="32.0" y="894.4448979591837" type="line"/>
      <point x="32.0" y="16.444897959183674" type="line"/>
    </contour>
    <component base="cap"/>
    <component base="cap" yOffset="878.0"/>
  </outline>
</glyph>
<glyph name="_92" format="2">
  <advance width="32.0"/>
  <unicode hex="015C"/>
  <unicode hex="0055"/>
  <outline>
    <contour>
      <point x="0.0" y="16.444897959183674" type="line"/>
      <point x="0.0" y="904.4448979591837" type="line"/>
      <point x="32.0" y="904.4448979591837" type="line"/>
      <point x="32.0" y="16.444897959183674" type="line"/>
    </contour>
    <component base="cap"/>
    <component base="cap" yOffset="888.0"/>
  </outline>
</glyph>
<glyph name="_93" format="2">
  <advance width="32.0"/>
  <unicode hex="015D"/>
  <outline>
    <contour>
      <point x="0.0" y="16.444897959183674" type="line"/>
      <point x="0.0" y="914.4448979591837" type="line"/>
      <point x="32.0" y="914.4448979591837" type="line"/>
      <point x="32.0" y="16.444897959183674" type="line"/>
    </contour>
    <component base="cap"/>
    <component base="cap" yOffset="898.0"/>
  </outline>
</glyph>
<glyph name="_94" format="2">
  <advance width="32.0"/>
  <unicode hex="015E"/>
  <unicode hex="0056"/>
  <outline>
    <contour>
      <point x="0.0" y="16.444897959183674" type="line"/>
      <point x="0.0" y="924.4448979591837" type="line"/>
      <point x="32.0" y="924.4448979591837" type="line"/>
      <point x="32.0" y="16.444897959183674" type="line"/>
    </contour>
    <component base="cap"/>
    <component base="cap" yOffset="908.0"/>
  </outline>
</glyph>
<glyph name="_97" format="2">
  <advance width="32.0"/>
  <unicode hex="0161"/>
  <outline>
    <contour>
      <point x="0.0" y="16.444897959183674" type="line"/>
      <point x="0.0" y="954.4448979591837" type="line"/>
      <point x="32.0" y="954.4448979591837" type="line"/>
      <point x="32.0" y="16.444897959183674" type="line"/>
    </contour>
    <component base="cap"/>
    <component base="cap" yOffset="938.0"/>
  </outline>
</glyph>
<glyph name="_99" format="2">
  <advance width="32.0"/>
  <unicode hex="0163"/>
  <unicode hex="0059"/>
  <outline>
    <contour>
      <point x="0.0" y="16.444897959183674" type="line"/>
      <point x="0.0" y="974.4448979591837" type="line"/>
      <point x="32.0" y="974.4448979591837" type="line"/>
      <point x="32.0" y="16.444897959183674" type="line"/>
    </contour>
    <component base="cap"/>
    <component base="cap" yOffset="958.0"/>
  </outline>
</glyph>
<glyph name="_100" format="2">
  <advance width="32.0"/>
  <unicode hex="0164"/>
  <unicode hex="007C"/>
  <unicode hex="2588"/>
  <unicode hex="005A"/>
  <outline>
    <contour>
      <point x="0.0" y="16.444897959183674" type="line"/>
      <point x="0.0" y="984.4448979591837" type="line"/>
      <point x="32.0" y="984.4448979591837" type="line"/>
      <point x="32.0" y="16.444897959183674" type="line"/>
    </contour>
    <component base="cap"/>
    <component base="cap" yOffset="968.0"/>
  </outline>
</glyph>
<glyph name="_105" format="2">
  <advance width="32.0"/>
  <unicode hex="0169"/>
  <outline>
    <contour>
      <point x="0.0" y="16.444897959183674" type="line"/>
      <point x="0.0" y="1034.4448979591837" type="line"/>
      <point x="32.0" y="1034.4448979591837" type="line"/>
      <point x="32.0" y="16.444897959183674" type="line"/>
    </contour>
    <component base="cap"/>
    <component base="cap" yOffset="1018.0"/>
  </outline>
</glyph>
<glyph name="_106" format="2">
  <advance width="32.0"/>
  <unicode hex="016A"/>
  <outline>
    <contour>
      <point x="0.0" y="16.444897959183674" type="line"/>
      <point x="0.0" y="1044.4448979591837" type="line"/>
      <point x="32.0" y="1044.4448979591837" type="line"/>
      <point x="32.0" y="16.444897959183674" type="line"/>
    </contour>
    <component base="cap"/>
    <component base="cap" yOffset="1028.0"/>
  </outline>
</glyph>
<glyph name="_107" format="2">
  <advance width="32.0"/>
  <unicode hex="016B"/>
  <outline>
    <contour>
      <point x="0.0" y="16.444897959183674" type="line"/>
      <point x="0.0" y="1054.4448979591837" type="line"/>
      <point x="32.0" y="1054.4448979591837" type="line"/>
      <point x="32.0" y="16.444897959183674" type="line"/>
    </contour>
    <component base="cap"/>
    <component base="cap" yOffset="1038.0"/>
  </outline>
</glyph>
<glyph name="_108" format="2">
  <advance width="32.0"/>
  <unicode hex="016C"/>
  <outline>
    <contour>
      <point x="0.0" y="16.444897959183674" type="line"/>
      <point x="0.0" y="1064.4448979591837" type="line"/>
      <point x="32.0" y="1064.4448979591837" type="line"/>
      <point x="32.0" y="16.444897959183674" type="line"/>
    </contour>
    <component base="cap"/>
    <component base="cap" yOffset="1048.0"/>
  </outline>
</glyph>
<glyph name="_116" format="2">
  <advance width="32.0"/>
  <unicode hex="0174"/>
  <outline>
    <contour>
      <point x="0.0" y="16.444897959183674" type="line"/>
      <point x="0.0" y="1144.4448979591837" type="line"/>
      <point x="32.0" y="1144.4448979591837" type="line"/>
      <point x="32.0" y="16.444897959183674" type="line"/>
    </contour>
    <component base="cap"/>
    <component base="cap" yOffset="1128.0"/>
  </outline>
</glyph>
<glyph name="_119" format="2">
  <advance width="32.0"/>
  <unicode hex="0177"/>
  <outline>
    <contour>
      <point x="0.0" y="16.444897959183674" type="line"/>
      <point x="0.0" y="1174.4448979591837" type="line"/>
      <point x="32.0" y="1174.4448979591837" type="line"/>
      <point x="32.0" y="16.444897959183674" type="line"/>
    </contour>
    <component base="cap"/>
    <component base="cap" yOffset="1158.0"/>
  </outline>
</glyph>
<glyph name="_127" format="2">
  <advance width="32.0"/>
  <unicode hex="017F"/>
  <outline>
    <contour>
      <point x="0.0" y="16.444897959183674" type="line"/>
      <point x="0.0" y="1254.4448979591837" type="line"/>
      <point x="32.0" y="1254.4448979591837" type="line"/>
      <point x="32.0" y="16.444897959183674" type="line"/>
    </contour>
    <component base="cap"/>
    <component base="cap" yOffset="1238.0"/>
  </outline>
</glyph>
<glyph name="_1.clip" format="2">
  <advance width="32.0"/>
  <outline>
    <contour>
      <point x="0.0" y="16.444897959183674" type="line"/>
      <point x="0.0" y="-5.555102040816326" type="line"/>
      <point x="32.0" y="-5.555102040816326" type="line"/>
      <point x="32.0" y="16.444897959183674" type="line"/>
    </contour>
    <component base="cap"/>
    <component base="cap" yOffset="-22.0"/>
  </outline>
</glyph>
<glyph name="_12.clip" format="2">
  <advance width="32.0"/>
  <outline>
    <contour>
      <point x="60.0" y="120.0" type="curve" smooth="yes"/>
      <point x="-28.0" y="120.0" type="line"/>
      <point x="5.889795918367348" y="120.0"/>
      <point x="32.0" y="93.0"/>
      <point x="32.0" y="60.0" type="curve" smooth="yes"/>
      <point x="32.0" y="60.0" type="line"/>
      <point x="32.0" y="26.0"/>
      <point x="5.889795918367348" y="0.0"/>
      <point x="-28.0" y="0.0" type="curve" smooth="yes"/>
      <point x="60.0" y="0.0" type="line"/>
      <point x="26.0" y="0.0"/>
      <point x="0.0" y="26.0"/>
      <point x="0.0" y="60.0" type="curve" smooth="yes"/>
      <point x="0.0" y="60.0" type="line"/>
      <point x="0.0" y="93.0"/>
      <point x="26.0" y="120.0"/>
    </contour>
  </outline>
</glyph>
<glyph name="_15.clip" format="2">
  <advance width="32.0"/>
  <outline>
    <contour>
      <point x="75.0" y="150.0" type="curve" smooth="yes"/>
      <point x="-43.0" y="150.0" type="line"/>
      <point x="-1.75" y="150.0"/>
      <point x="32.0" y="116.25"/>
      <point x="32.0" y="75.0" type="curve" smooth="yes"/>
      <point x="32.0" y="75.0" type="line"/>
      <point x="32.0" y="33.75"/>
      <point x="-1.75" y="0.0"/>
      <point x="-43.0" y="0.0" type="curve" smooth="yes"/>
      <point x="75.0" y="0.0" type="line"/>
      <point x="33.75" y="0.0"/>
      <point x="0.0" y="33.75"/>
      <point x="0.0" y="75.0" type="curve" smooth="yes"/>
      <point x="0.0" y="75.0" type="line"/>
      <point x="0.0" y="116.25"/>
      <point x="33.75" y="150.0"/>
    </contour>
  </outline>
</glyph>
<glyph name="_17.clip" format="2">
  <advance width="32.0"/>
  <outline>
    <contour>
      <point x="85.0" y="170.0" type="curve" smooth="yes"/>
      <point x="-53.0" y="170.0" type="line"/>
      <point x="-6.25" y="170.0"/>
      <point x="32.0" y="131.75"/>
      <point x="32.0" y="85.0" type="curve" smooth="yes"/>
      <point x="32.0" y="85.0" type="line"/>
      <point x="32.0" y="38.25"/>
      <point x="-6.25" y="0.0"/>
      <point x="-53.0" y="0.0" type="curve" smooth="yes"/>
      <point x="85.0" y="0.0" type="line"/>
      <point x="38.25" y="0.0"/>
      <point x="0.0" y="38.25"/>
      <point x="0.0" y="85.0" type="curve" smooth="yes"/>
      <point x="0.0" y="85.0" type="line"/>
      <point x="0.0" y="131.75"/>
      <point x="38.25" y="170.0"/>
    </contour>
  </outline>
</glyph>
<glyph name="_18.clip" format="2">
  <advance width="32.0"/>
  <outline>
    <contour>
      <point x="90.0" y="180.0" type="curve" smooth="yes"/>
      <point x="-58.0" y="180.0" type="line"/>
      <point x="-8.5" y="180.0"/>
      <point x="32.0" y="139.5"/>
      <point x="32.0" y="90.0" type="curve" smooth="yes"/>
      <point x="32.0" y="90.0" type="line"/>
      <point x="32.0" y="40.5"/>
      <point x="-8.5" y="0.0"/>
      <point x="-58.0" y="0.0" type="curve" smooth="yes"/>
      <point x="90.0" y="0.0" type="line"/>
      <point x="40.5" y="0.0"/>
      <point x="0.0" y="40.5"/>
      <point x="0.0" y="90.0" type="curve" smooth="yes"/>
      <point x="0.0" y="90.0" type="line"/>
      <point x="0.0" y="139.5"/>
      <point x="40.5" y="180.0"/>
    </contour>
  </outline>
</glyph>
<glyph name="_19.clip" format="2">
  <advance width="32.0"/>
  <outline>
    <contour>
      <point x="95.0" y="190.0" type="curve" smooth="yes"/>
      <point x="-63.0" y="190.0" type="line"/>
      <point x="-10.75" y="190.0"/>
      <point x="32.0" y="147.25"/>
      <point x="32.0" y="95.0" type="curve" smooth="yes"/>
      <point x="32.0" y="95.0" type="line"/>
      <point x="32.0" y="42.75"/>
      <point x="-10.75" y="0.0"/>
      <point x="-63.0" y="0.0" type="curve" smooth="yes"/>
      <point x="95.0" y="0.0" type="line"/>
      <point x="42.75" y="0.0"/>
      <point x="0.0" y="42.75"/>
      <point x="0.0" y="95.0" type="curve" smooth="yes"/>
      <point x="0.0" y="95.0" type="line"/>
      <point x="0.0" y="147.25"/>
      <point x="42.75" y="190.0"/>
    </contour>
  </outline>
</glyph>
<glyph name="_23.clip" format="2">
  <advance width="32.0"/>
  <outline>
    <contour>
      <point x="115.0" y="230.0" type="curve" smooth="yes"/>
      <point x="-83.0" y="230.0" type="line"/>
      <point x="-19.75" y="230.0"/>
      <point x="32.0" y="178.25"/>
      <point x="32.0" y="115.0" type="curve" smooth="yes"/>
      <point x="32.0" y="115.0" type="line"/>
      <point x="32.0" y="51.75"/>
      <point x="-19.75" y="0.0"/>
      <point x="-83.0" y="0.0" type="curve" smooth="yes"/>
      <point x="115.0" y="0.0" type="line"/>
      <point x="51.75" y="0.0"/>
      <point x="0.0" y="51.75"/>
      <point x="0.0" y="115.0" type="curve" smooth="yes"/>
      <point x="0.0" y="115.0" type="line"/>
      <point x="0.0" y="178.25"/>
      <point x="51.75" y="230.0"/>
    </contour>
  </outline>
</glyph>
<glyph name="_5.clip" format="2">
  <advance width="32.0"/>
  <outline>
    <contour>
      <point x="25.0" y="50.0" type="curve" smooth="yes"/>
      <point x="7.0" y="50.0" type="line"/>
      <point x="20.75" y="50.0"/>
      <point x="32.0" y="38.75"/>
      <point x="32.0" y="25.0" type="curve" smooth="yes"/>
      <point x="32.0" y="25.0" type="line"/>
      <point x="32.0" y="11.25"/>
      <point x="20.75" y="0.0"/>
      <point x="7.0" y="0.0" type="curve" smooth="yes"/>
      <point x="25.0" y="0.0" type="line"/>
      <point x="11.25" y="0.0"/>
      <point x="0.0" y="11.25"/>
      <point x="0.0" y="25.0" type="curve" smooth="yes"/>
      <point x="0.0" y="25.0" type="line"/>
      <point x="0.0" y="38.75"/>
      <point x="11.25" y="50.0"/>
    </contour>
  </outline>
</glyph>
<glyph name="_6.clip" format="2">
  <advance width="32.0"/>
  <outline>
    <contour>
      <point x="30.0" y="60.0" type="curve" smooth="yes"/>
      <point x="2.0" y="60.0" type="line"/>
      <point x="18.5" y="60.0"/>
      <point x="32.0" y="46.5"/>
      <point x="32.0" y="30.0" type="curve" smooth="yes"/>
      <point x="32.0" y="30.0" type="line"/>
      <point x="32.0" y="13.5"/>
      <point x="18.5" y="0.0"/>
      <point x="2.0" y="0.0" type="curve" smooth="yes"/>
      <point x="30.0" y="0.0" type="line"/>
      <point x="13.5" y="0.0"/>
      <point x="0.0" y="13.5"/>
      <point x="0.0" y="30.0" type="curve" smooth="yes"/>
      <point x="0.0" y="30.0" type="line"/>
      <point x="0.0" y="46.5"/>
      <point x="13.5" y="60.0"/>
    </contour>
  </outline>
</glyph>
<glyph name="_7.clip" format="2">
  <advance width="32.0"/>
  <outline>
    <contour>
      <point x="35.0" y="70.0" type="curve" smooth="yes"/>
      <point x="-3.0" y="70.0" type="line"/>
      <point x="16.25" y="70.0"/>
      <point x="32.0" y="54.25"/>
      <point x="32.0" y="35.0" type="curve" smooth="yes"/>
      <point x="32.0" y="35.0" type="line"/>
      <point x="32.0" y="15.75"/>
      <point x="16.25" y="0.0"/>
      <point x="-3.0" y="0.0" type="curve" smooth="yes"/>
      <point x="35.0" y="0.0" type="line"/>
      <point x="15.75" y="0.0"/>
      <point x="0.0" y="15.75"/>
      <point x="0.0" y="35.0" type="curve" smooth="yes"/>
      <point x="0.0" y="35.0" type="line"/>
      <point x="0.0" y="54.25"/>
      <point x="15.75" y="70.0"/>
    </contour>
  </outline>
</glyph>
<glyph name="_9.clip" format="2">
  <advance width="32.0"/>
  <outline>
    <contour>
      <point x="45.0" y="90.0" type="curve" smooth="yes"/>
      <point x="-13.0" y="90.0" type="line"/>
      <point x="11.75" y="90.0"/>
      <point x="32.0" y="69.75"/>
      <point x="32.0" y="45.0" type="curve" smooth="yes"/>
      <point x="32.0" y="45.0" type="line"/>
      <point x="32.0" y="20.25"/>
      <point x="11.75" y="0.0"/>
      <point x="-13.0" y="0.0" type="curve" smooth="yes"/>
      <point x="45.0" y="0.0" type="line"/>
      <point x="20.25" y="0.0"/>
      <point x="0.0" y="20.25"/>
      <point x="0.0" y="45.0" type="curve" smooth="yes"/>
      <point x="0.0" y="45.0" type="line"/>
      <point x="0.0" y="69.75"/>
      <point x="20.25" y="90.0"/>
    </contour>
  </outline>
</glyph>
<glyph name="cap" format="2">
  <outline>
    <contour>
      <point x="16.0" y="32.0" type="curve" smooth="yes"/>
      <point x="16.0" y="32.0" type="line"/>
      <point x="24.8" y="32.0"/>
      <point x="32.0" y="24.8"/>
      <point x="32.0" y="16.0" type="curve" smooth="yes"/>
      <point x="32.0" y="16.0" type="line"/>
      <point x="32.0" y="7.2"/>
      <point x="24.8" y="0.0"/>
      <point x="16.0" y="0.0" type="curve" smooth="yes"/>
      <point x="16.0" y="0.0" type="line"/>
      <point x="7.2" y="0.0"/>
      <point x="0.0" y="7.2"/>
      <point x="0.0" y="16.0" type="curve" smooth="yes"/>
      <point x="0.0" y="16.0" type="line"/>
      <point x="0.0" y="24.8"/>
      <point x="7.2" y="32.0"/>
    </contour>
  </outline>
</glyph>
